<svg xmlns="http://www.w3.org/2000/svg" viewBox="0 0 32 32">
  <!-- Background -->
  <rect width="32" height="32" rx="6" fill="#0F4A30"/>
  <!-- Island body -->
  <path d="M7 20 C7 16 9 13 12 12 C13 10 15 9 17 9 C20 9 22 10 23 12 C25 13 26 15 26 18 C26 21 24 23 21 23 C19 24 15 24 12 23 C9 22 7 22 7 20Z" fill="#2A8C62"/>
  <!-- Island highlight -->
  <path d="M10 19 C10 16 12 14 15 13 C17 12 19 12 21 13 C23 14 24 16 23 18 C22 20 19 21 16 21 C13 21 10 21 10 19Z" fill="#3DB87A" opacity="0.5"/>
  <!-- Plant reeds - slightly fuller than calculator version -->
  <line x1="14" y1="12" x2="14" y2="6" stroke="#3DB87A" stroke-width="1.2" stroke-linecap="round"/>
  <line x1="14" y1="7" x2="12" y2="5" stroke="#3DB87A" stroke-width="1" stroke-linecap="round"/>
  <line x1="17" y1="11" x2="17" y2="7" stroke="#3DB87A" stroke-width="1.2" stroke-linecap="round"/>
  <line x1="17" y1="8" x2="19" y2="6" stroke="#3DB87A" stroke-width="1" stroke-linecap="round"/>
  <line x1="15.5" y1="10" x2="15.5" y2="8" stroke="#2A8C62" stroke-width="0.8" stroke-linecap="round"/>
  <!-- Water ripple -->
  <path d="M5 26 Q8 24.5 11 26 Q14 27.5 17 26 Q20 24.5 23 26 Q26 27.5 28 26" fill="none" stroke="#1B6B4A" stroke-width="1" opacity="0.6"/>
</svg>
